SRRun01_grf
version=1
nRows=34
nColumns=19
inDegrees=no
endheader
time	ground_force_r_vx	ground_force_r_vy	ground_force_r_vz	ground_force_r_px	ground_force_r_py	ground_force_r_pz	ground_force_r_mx	ground_force_r_my	ground_force_r_mz	ground_force_l_vx	ground_force_l_vy	ground_force_l_vz	ground_force_l_px	ground_force_l_py	ground_force_l_pz	ground_force_l_mx	ground_force_l_my	ground_force_l_mz
    144.99800000	     86.26716354	    277.12436961	     24.11815117	      0.92208975	      0.00000000	     -0.30705813	      0.00000355	     11.24460774	      0.00001288	      0.00000000	      0.00000000	      0.00000000	      0.00000000	      0.00000000	      0.00000000	      0.00000000	      0.00000000	      0.00000000
    144.99900000	     86.23462519	    265.52184034	     27.11326672	      0.91699876	      0.00000000	     -0.30593933	      0.00000336	     15.87223958	      0.00001219	      0.00000000	      0.00000000	      0.00000000	      0.00000000	      0.00000000	      0.00000000	      0.00000000	      0.00000000	      0.00000000
    145.00000000	     87.05759493	    254.28359365	     29.87161475	      0.91207055	      0.00000000	     -0.30491825	      0.00000317	     19.38002848	      0.00001155	      0.00000000	      0.00000000	      0.00000000	      0.00000000	      0.00000000	      0.00000000	      0.00000000	      0.00000000	      0.00000000
    145.00100000	     88.42692177	    243.48040136	     32.33469846	      0.90756313	      0.00000000	     -0.30402746	      0.00000299	     21.50086584	      0.00001097	      0.00000000	      0.00000000	      0.00000000	      0.00000000	      0.00000000	      0.00000000	      0.00000000	      0.00000000	      0.00000000
    145.00200000	     89.99509606	    233.17301705	     34.43562345	      0.90372464	      0.00000000	     -0.30329587	      0.00000282	     22.08079393	      0.00001044	      0.00000000	      0.00000000	      0.00000000	      0.00000000	      0.00000000	      0.00000000	      0.00000000	      0.00000000	      0.00000000
    145.00300000	     91.41883517	    223.40646585	     36.09735459	      0.90076583	      0.00000000	     -0.30274921	      0.00000265	     21.09134642	      0.00000997	      0.00000000	      0.00000000	      0.00000000	      0.00000000	      0.00000000	      0.00000000	      0.00000000	      0.00000000	      0.00000000
    145.00400000	     92.39861140	    214.20553198	     37.23396669	      0.89883491	      0.00000000	     -0.30240978	      0.00000249	     18.63093614	      0.00000955	      0.00000000	      0.00000000	      0.00000000	      0.00000000	      0.00000000	      0.00000000	      0.00000000	      0.00000000	      0.00000000
    145.00500000	     92.71055987	    205.57213789	     37.75512842	      0.89799778	      0.00000000	     -0.30229512	      0.00000233	     14.91516494	      0.00000917	      0.00000000	      0.00000000	      0.00000000	      0.00000000	      0.00000000	      0.00000000	      0.00000000	      0.00000000	      0.00000000
    145.00600000	     92.22738201	    197.48481032	     37.57366418	      0.89822531	      0.00000000	     -0.30241560	      0.00000217	     10.25692835	      0.00000881	      0.00000000	      0.00000000	      0.00000000	      0.00000000	      0.00000000	      0.00000000	      0.00000000	      0.00000000	      0.00000000
    145.00700000	     90.92633924	    189.90000154	     36.61560137	      0.89938882	      0.00000000	     -0.30277118	      0.00000202	      5.03819077	      0.00000846	      0.00000000	      0.00000000	      0.00000000	      0.00000000	      0.00000000	      0.00000000	      0.00000000	      0.00000000	      0.00000000
    145.00800000	     88.88405674	    182.75492135	     34.83164028	      0.90126517	      0.00000000	     -0.30334768	      0.00000187	     -0.32386695	      0.00000812	      0.00000000	      0.00000000	      0.00000000	      0.00000000	      0.00000000	      0.00000000	      0.00000000	      0.00000000	      0.00000000
    145.00900000	     86.25949903	    175.97158754	     32.20862432	      0.90355264	      0.00000000	     -0.30411359	      0.00000173	     -5.41312773	      0.00000778	      0.00000000	      0.00000000	      0.00000000	      0.00000000	      0.00000000	      0.00000000	      0.00000000	      0.00000000	      0.00000000
    145.01000000	     83.26787169	    169.46179553	     28.77941798	      0.90589739	      0.00000000	     -0.30501800	      0.00000160	     -9.84986296	      0.00000742	      0.00000000	      0.00000000	      0.00000000	      0.00000000	      0.00000000	      0.00000000	      0.00000000	      0.00000000	      0.00000000
    145.01100000	     80.14915480	    163.13265421	     24.62962294	      0.90792846	      0.00000000	     -0.30599068	      0.00000147	    -13.32185946	      0.00000705	      0.00000000	      0.00000000	      0.00000000	      0.00000000	      0.00000000	      0.00000000	      0.00000000	      0.00000000	      0.00000000
    145.01200000	     77.13543510	    156.89236156	     19.89978106	      0.90929750	      0.00000000	     -0.30694491	      0.00000137	    -15.60859256	      0.00000667	      0.00000000	      0.00000000	      0.00000000	      0.00000000	      0.00000000	      0.00000000	      0.00000000	      0.00000000	      0.00000000
    145.01300000	     74.42116347	    150.65600334	     14.78214823	      0.90971906	      0.00000000	     -0.30778298	      0.00000127	    -16.59642046	      0.00000628	      0.00000000	      0.00000000	      0.00000000	      0.00000000	      0.00000000	      0.00000000	      0.00000000	      0.00000000	      0.00000000
    145.01400000	     72.13995407	    144.35122565	      9.51178793	      0.90900745	      0.00000000	     -0.30840401	      0.00000120	    -16.28364807	      0.00000588	      0.00000000	      0.00000000	      0.00000000	      0.00000000	      0.00000000	      0.00000000	      0.00000000	      0.00000000	      0.00000000
    145.01500000	     70.35061754	    137.92356589	      4.35252329	      0.90710607	      0.00000000	     -0.30871292	      0.00000115	    -14.77528680	      0.00000548	      0.00000000	      0.00000000	      0.00000000	      0.00000000	      0.00000000	      0.00000000	      0.00000000	      0.00000000	      0.00000000
    145.01600000	     69.03383430	    131.34106581	     -0.42104803	      0.90410540	      0.00000000	     -0.30862951	      0.00000112	    -12.26834172	      0.00000508	      0.00000000	      0.00000000	      0.00000000	      0.00000000	      0.00000000	      0.00000000	      0.00000000	      0.00000000	      0.00000000
    145.01700000	     68.09938056	    124.59764579	     -4.54392192	      0.90024563	      0.00000000	     -0.30809710	      0.00000112	     -9.02936222	      0.00000470	      0.00000000	      0.00000000	      0.00000000	      0.00000000	      0.00000000	      0.00000000	      0.00000000	      0.00000000	      0.00000000
    145.01800000	     67.40242169	    117.71473364	     -7.78175797	      0.89590103	      0.00000000	     -0.30708999	      0.00000113	     -5.36671816	      0.00000433	      0.00000000	      0.00000000	      0.00000000	      0.00000000	      0.00000000	      0.00000000	      0.00000000	      0.00000000	      0.00000000
    145.01900000	     66.76633120	    110.74085775	     -9.95083250	      0.89154586	      0.00000000	     -0.30561947	      0.00000116	     -1.60053291	      0.00000398	      0.00000000	      0.00000000	      0.00000000	      0.00000000	      0.00000000	      0.00000000	      0.00000000	      0.00000000	      0.00000000
    145.02000000	     66.00884469	    103.74919066	    -10.93487846	      0.88770463	      0.00000000	     -0.30373718	      0.00000120	      1.96670342	      0.00000366	      0.00000000	      0.00000000	      0.00000000	      0.00000000	      0.00000000	      0.00000000	      0.00000000	      0.00000000	      0.00000000
    145.02100000	     64.96808665	     96.83321845	    -10.69681216	      0.88489266	      0.00000000	     -0.30153457	      0.00000124	      5.07612058	      0.00000337	      0.00000000	      0.00000000	      0.00000000	      0.00000000	      0.00000000	      0.00000000	      0.00000000	      0.00000000	      0.00000000
    145.02200000	     63.52510980	     90.10084858	     -9.28370282	      0.88355447	      0.00000000	     -0.29913744	      0.00000128	      7.53287329	      0.00000310	      0.00000000	      0.00000000	      0.00000000	      0.00000000	      0.00000000	      0.00000000	      0.00000000	      0.00000000	      0.00000000
    145.02300000	     61.62008553	     83.66736950	     -6.82402105	      0.88400754	      0.00000000	     -0.29669531	      0.00000131	      9.21937083	      0.00000287	      0.00000000	      0.00000000	      0.00000000	      0.00000000	      0.00000000	      0.00000000	      0.00000000	      0.00000000	      0.00000000
    145.02400000	     59.26014446	     77.64763670	     -3.51703084	      0.88639795	      0.00000000	     -0.29436598	      0.00000133	     10.10034609	      0.00000266	      0.00000000	      0.00000000	      0.00000000	      0.00000000	      0.00000000	      0.00000000	      0.00000000	      0.00000000	      0.00000000
    145.02500000	     56.51797166	     72.14777606	      0.38495072	      0.89067354	      0.00000000	     -0.29229684	      0.00000134	     10.21948720	      0.00000249	      0.00000000	      0.00000000	      0.00000000	      0.00000000	      0.00000000	      0.00000000	      0.00000000	      0.00000000	      0.00000000
    145.02600000	     53.52145292	     67.25681351	      4.59984775	      0.89657890	      0.00000000	     -0.29060477	      0.00000134	      9.68816369	      0.00000234	      0.00000000	      0.00000000	      0.00000000	      0.00000000	      0.00000000	      0.00000000	      0.00000000	      0.00000000	      0.00000000
    145.02700000	     50.43581235	     63.03897589	      8.84231861	      0.90367598	      0.00000000	     -0.28935850	      0.00000133	      8.66756425	      0.00000222	      0.00000000	      0.00000000	      0.00000000	      0.00000000	      0.00000000	      0.00000000	      0.00000000	      0.00000000	      0.00000000
    145.02800000	     47.44068156	     59.52766952	     12.85055176	      0.91139260	      0.00000000	     -0.28856820	      0.00000132	      7.34622790	      0.00000213	      0.00000000	      0.00000000	      0.00000000	      0.00000000	      0.00000000	      0.00000000	      0.00000000	      0.00000000	      0.00000000
    145.02900000	     44.70530155	     56.72206356	     16.41031218	      0.91909623	      0.00000000	     -0.28818642	      0.00000130	      5.91549908	      0.00000206	      0.00000000	      0.00000000	      0.00000000	      0.00000000	      0.00000000	      0.00000000	      0.00000000	      0.00000000	      0.00000000
    145.03000000	     42.36547162	     54.58683032	     19.37341754	      0.92618395	      0.00000000	     -0.28812118	      0.00000128	      4.54586252	      0.00000202	      0.00000000	      0.00000000	      0.00000000	      0.00000000	      0.00000000	      0.00000000	      0.00000000	      0.00000000	      0.00000000
    145.03100000	      0.00000000	      0.00000000	      0.00000000	      0.00000000	      0.00000000	      0.00000000	      0.00000000	      0.00000000	      0.00000000	      0.00000000	      0.00000000	      0.00000000	      0.00000000	      0.00000000	      0.00000000	      0.00000000	      0.00000000	      0.00000000
